<svg id="eG7Xg0IVNKd1" xmlns="http://www.w3.org/2000/svg" xmlns:xlink="http://www.w3.org/1999/xlink" viewBox="0 0 500 500" shape-rendering="geometricPrecision" text-rendering="geometricPrecision" style="background-color:transparent"><g id="eG7Xg0IVNKd2"><path id="eG7Xg0IVNKd3" d="M46.26,232C46.26,232,46.64,302.53,104.12,350.28C161.6,398.03,242.91,402.45,308.69,407.76C374.47,413.07,426.08,376.36,435.22,319.96C444.36,263.56,394.45,246.33,368.86,181.67C343.27,117.01,346.26,95.9,289.51,55.6C232.76,15.3,141.69,38.42,92.51,105.6C43.33,172.78,46.26,232,46.26,232Z" fill="rgb(107,70,193)" stroke="none" stroke-width="1"/><path id="eG7Xg0IVNKd4" d="M46.575786,232C46.575786,232,46.955786,302.53,104.435786,350.28C161.915786,398.03,243.225786,402.45,309.005786,407.76C374.785786,413.07,426.395786,376.36,435.535786,319.96C444.675786,263.56,394.765786,246.33,369.175786,181.67C343.585786,117.01,346.575786,95.9,289.825786,55.6C233.075786,15.3,142.005786,38.42,92.825786,105.6C43.645786,172.78,46.575786,232,46.575786,232Z" opacity="0.7" fill="rgb(255,255,255)" stroke="none" stroke-width="1"/></g><g id="eG7Xg0IVNKd5"><path id="eG7Xg0IVNKd6" d="M162.7,257.77C161.84475,257.370489,160.949818,257.062123,160.03,256.85C154.64,255.57,148.34,254.56,148.34,254.56C148.34,254.56,157.79,245.01,154.19,240.85C150.59,236.69,144.31,243.09,144.31,243.09C144.31,243.09,150.6,225.8,141.62,223.24C132.64,220.68,122.76,239.89,122.76,239.89C122.76,239.89,122.31,232.52,117.82,233.48C113.33,234.44,112.43,243.09,112.43,243.09C112.43,243.09,105.69,239.25,103.9,242.77C102.11,246.29,106.14,253.33,106.14,253.33C106.14,253.33,98.51,248.85,97.61,253.01C97.270108,254.572334,97.14895,256.174318,97.25,257.77Z" fill="none" stroke="rgb(38,50,56)" stroke-width="0.950778" stroke-linecap="round" stroke-linejoin="round"/></g><g id="eG7Xg0IVNKd7"><path id="eG7Xg0IVNKd8" d="M440.15,367.85C432.104676,367.85,424.316124,370.682201,418.15,375.85C409.316733,366.103414,394.331667,365.154936,384.34,373.71C377.806802,368.159213,369.134883,365.818411,360.695943,367.327783C352.257002,368.837156,344.934104,374.03876,340.73,381.51C337.151505,379.588158,332.826143,379.689185,329.341278,381.776004C325.856413,383.862824,323.725286,387.628094,323.73,391.69C323.73114,392.14115,323.75785,392.591873,323.81,393.04C323.092813,392.959606,322.371678,392.919542,321.65,392.92C317.201357,392.913666,312.896493,394.495189,309.51,397.38C306.634447,394.912032,302.969414,393.556714,299.18,393.56C298.6823,393.56146,298.184995,393.588161,297.69,393.64L297.69,237.24C298.456521,235.794902,299.40049,234.451174,300.5,233.24L300.5,233.24C303.385096,230.674417,304.385006,226.593088,303.012575,222.984428C301.640144,219.375768,298.180828,216.990353,294.32,216.990353C290.459172,216.990353,286.999856,219.375768,285.627425,222.984428C284.254994,226.593088,285.254904,230.674417,288.14,233.24L288.14,233.24C289.186279,234.392463,290.092574,235.664634,290.84,237.03L290.84,395.93C289.582014,396.712826,288.435061,397.661333,287.43,398.75C280.049677,392.605043,269.582637,391.821822,261.37,396.8C260.273722,396.139422,259.122843,395.574019,257.93,395.11L257.93,250.54C259.45,244.54,264.23,239.54,264.23,239.54L264.23,239.54C268.786662,235.483055,270.363771,229.033172,268.193303,223.331327C266.022835,217.629482,260.555981,213.860957,254.455,213.860957C248.354019,213.860957,242.887165,217.629482,240.716697,223.331327C238.546229,229.033172,240.123338,235.483055,244.68,239.54L244.68,239.59C244.68,239.59,249.68,244.85,251.1,251.11L251.1,393.58C250.66,393.58,250.21,393.58,249.75,393.58C244.490277,393.572551,239.39582,395.417034,235.36,398.79C230.774097,393.72628,223.459642,392.170699,217.21,394.93L217.21,237.24C217.976521,235.794902,218.92049,234.451174,220.02,233.24L220.02,233.24C222.905096,230.674417,223.905006,226.593088,222.532575,222.984428C221.160144,219.375768,217.700828,216.990353,213.84,216.990353C209.979172,216.990353,206.519856,219.375768,205.147425,222.984428C203.774994,226.593088,204.774904,230.674417,207.66,233.24L207.66,233.24C208.706279,234.392463,209.612574,235.664634,210.36,237.03L210.36,395.33C203.364028,391.365257,194.616286,392.319776,188.64,397.7C188.712698,397.331087,188.749536,396.956007,188.75,396.58C188.75,393.459591,186.220409,390.93,183.1,390.93C182.665223,390.932712,182.232265,390.986412,181.81,391.09C181.486566,387.790419,179.548811,384.865646,176.636482,383.281291C173.724152,381.696935,170.215911,381.658997,167.27,383.18C163.421789,375.143804,156.062802,369.347863,147.348609,367.489906C138.634416,365.631948,129.551353,367.922271,122.76,373.69C112.768333,365.134936,97.783267,366.083414,88.95,375.83C78.09901,366.715286,62.762576,365.204663,50.341789,372.02713C37.921003,378.849597,30.968724,392.602925,32.84,406.65L474.25,406.65C474.437834,405.184068,474.534686,403.707908,474.54,402.23C474.534478,383.240833,459.139168,367.849999,440.15,367.85Z" fill="rgb(194,194,194)" stroke="none" stroke-width="1"/><path id="eG7Xg0IVNKd9" d="M217.65,224.46C217.65,222.32,215.92,218.92,213.77,218.92C211.62,218.92,209.89,222.32,209.89,224.46C209.89,226.6,213.19,230.88,213.77,230.88C214.35,230.88,217.65,226.6,217.65,224.46Z" fill="rgb(107,70,193)" stroke="none" stroke-width="1"/><path id="eG7Xg0IVNKd10" d="M298.21,224.46C298.21,222.32,296.48,218.92,294.33,218.92C292.18,218.92,290.45,222.32,290.45,224.46C290.45,226.6,293.75,230.88,294.33,230.88C294.91,230.88,298.21,226.6,298.21,224.46Z" fill="rgb(107,70,193)" stroke="none" stroke-width="1"/><path id="eG7Xg0IVNKd11" d="M214.22,198.93L241.58,174.85L241.58,195.28L216.04,207.28Z" fill="rgb(38,50,56)" stroke="rgb(38,50,56)" stroke-width="0.950778" stroke-miterlimit="10"/><path id="eG7Xg0IVNKd12" d="M219.73,218.75L207.85,218.75L205.34,172.12C205.305757,171.787546,205.305757,171.452454,205.34,171.12C205.75,167.27,209.34,154.65,213.78,154.65L213.78,154.65C218.19,154.65,221.78,167.27,222.23,171.12C222.2594,171.452685,222.2594,171.787315,222.23,172.12Z" fill="rgb(255,255,255)" stroke="rgb(38,50,56)" stroke-width="0.950778" stroke-miterlimit="10"/><path id="eG7Xg0IVNKd13" d="M207,164.36L220.6,164.36C219.06,159.68,216.6,154.64,213.8,154.64C211,154.64,208.54,159.68,207,164.36Z" fill="rgb(38,50,56)" stroke="rgb(38,50,56)" stroke-width="0.950778" stroke-miterlimit="10"/><polygon id="eG7Xg0IVNKd14" points="207.32,208.91 207.85,218.75 219.73,218.75 220.26,208.91 207.32,208.91" fill="rgb(38,50,56)" stroke="rgb(38,50,56)" stroke-width="0.950778" stroke-miterlimit="10"/><path id="eG7Xg0IVNKd15" d="M294.39,198.93L267,174.85L267,195.28L292.54,207.28Z" fill="rgb(38,50,56)" stroke="rgb(38,50,56)" stroke-width="0.950778" stroke-miterlimit="10"/><path id="eG7Xg0IVNKd16" d="M288.88,218.75L300.76,218.75L303.27,172.12C303.304243,171.787546,303.304243,171.452454,303.27,171.12C302.86,167.27,299.27,154.65,294.83,154.65L294.83,154.65C290.42,154.65,286.83,167.27,286.38,171.12C286.3506,171.452685,286.3506,171.787315,286.38,172.12Z" fill="rgb(255,255,255)" stroke="rgb(38,50,56)" stroke-width="0.950778" stroke-miterlimit="10"/><polygon id="eG7Xg0IVNKd17" points="301.29,208.91 300.76,218.75 288.88,218.75 288.35,208.91 301.29,208.91" fill="rgb(38,50,56)" stroke="rgb(38,50,56)" stroke-width="0.950778" stroke-miterlimit="10"/><path id="eG7Xg0IVNKd18" d="M288,164.36L301.6,164.36C300.05,159.68,297.6,154.64,294.8,154.64C292,154.64,289.56,159.68,288,164.36Z" fill="rgb(38,50,56)" stroke="rgb(38,50,56)" stroke-width="0.950778" stroke-miterlimit="10"/><path id="eG7Xg0IVNKd19" d="M260.58,225.63C260.447066,222.33803,257.739653,219.73774,254.445,219.73774C251.150347,219.73774,248.442934,222.33803,248.31,225.63C248.31,229.02,253.52,235.78,254.44,235.78C255.16,235.78,260.58,229,260.58,225.63Z" fill="rgb(107,70,193)" stroke="none" stroke-width="1"/><path id="eG7Xg0IVNKd20" d="M270,202.33L238.93,202.33L232.35,101.41C232.264991,100.528712,232.264991,99.641288,232.35,98.76C233.45,88.66,242.94,55.61,254.47,55.61L254.47,55.61C266.01,55.61,275.47,88.66,276.59,98.76C276.680267,99.641027,276.680267,100.528973,276.59,101.41Z" fill="rgb(255,255,255)" stroke="rgb(38,50,56)" stroke-width="0.950778" stroke-miterlimit="10"/><path id="eG7Xg0IVNKd21" d="M254.53,177.42L254.53,177.42C247.022831,177.420002,240.93552,171.337167,240.93,163.83L240.93,107.18C240.93552,99.672833,247.022831,93.589998,254.53,93.59L254.53,93.59C262.033264,93.595515,268.114485,99.676736,268.12,107.18L268.12,163.83C268.114485,171.333264,262.033264,177.414485,254.53,177.42Z" fill="rgb(107,70,193)" stroke="rgb(38,50,56)" stroke-width="0.950778" stroke-miterlimit="10"/><polygon id="eG7Xg0IVNKd22" points="265.39,216.82 243.53,216.82 238.93,201.68 270.04,201.68 265.39,216.82" fill="rgb(38,50,56)" stroke="rgb(38,50,56)" stroke-width="0.950778" stroke-miterlimit="10"/><circle id="eG7Xg0IVNKd23" r="9.5" transform="matrix(0.929068 -0.369909 0.369909 0.929068 254.476984 109.209074)" fill="rgb(38,50,56)" stroke="none" stroke-width="1"/><circle id="eG7Xg0IVNKd24" r="9.5" transform="matrix(0.157469 -0.987524 0.987524 0.157469 254.485976 110.361613)" fill="rgb(107,70,193)" stroke="rgb(38,50,56)" stroke-width="0.950778" stroke-miterlimit="10"/><path id="eG7Xg0IVNKd25" d="M254.48,102.15C259.263478,102.151677,263.192097,105.930214,263.38,110.71C263.38,110.59,263.38,110.47,263.38,110.35C263.218967,105.542557,259.275139,101.728622,254.465,101.728622C249.654861,101.728622,245.711033,105.542557,245.55,110.35C245.55,110.47,245.55,110.59,245.55,110.71C245.733224,105.916281,249.682821,102.130329,254.48,102.15Z" fill="rgb(38,50,56)" stroke="none" stroke-width="1"/><circle id="eG7Xg0IVNKd26" r="7.09" transform="matrix(0.16057 -0.987024 0.987024 0.16057 254.48002 110.360928)" fill="rgb(255,255,255)" stroke="rgb(38,50,56)" stroke-width="0.950778" stroke-miterlimit="10"/><path id="eG7Xg0IVNKd27" d="M254.48,116.78C258.266496,116.778763,261.38376,113.802393,261.56,110.02C261.56,110.13,261.56,110.24,261.56,110.35C261.56,114.265699,258.385699,117.44,254.47,117.44C250.554301,117.44,247.38,114.265699,247.38,110.35C247.38,110.24,247.38,110.13,247.38,110.02C247.556589,113.810131,250.685769,116.789463,254.48,116.78Z" fill="rgb(38,50,56)" stroke="none" stroke-width="1"/><circle id="eG7Xg0IVNKd28" r="9.5" transform="matrix(1 0 0 1 254.48 132.67)" fill="rgb(38,50,56)" stroke="none" stroke-width="1"/><circle id="eG7Xg0IVNKd29" r="9.5" transform="matrix(1 0 0 1 254.48 133.81)" fill="rgb(107,70,193)" stroke="rgb(38,50,56)" stroke-width="0.950778" stroke-miterlimit="10"/><path id="eG7Xg0IVNKd30" d="M254.48,125.61C259.263478,125.611677,263.192097,129.390214,263.38,134.17C263.38,134.05,263.38,133.93,263.38,133.81C263.218967,129.002557,259.275139,125.188622,254.465,125.188622C249.654861,125.188622,245.711033,129.002557,245.55,133.81C245.55,133.93,245.55,134.05,245.55,134.17C245.733224,129.376281,249.682821,125.590329,254.48,125.61Z" fill="rgb(38,50,56)" stroke="none" stroke-width="1"/><circle id="eG7Xg0IVNKd31" r="7.09" transform="matrix(1 0 0 1 254.48 133.81)" fill="rgb(255,255,255)" stroke="rgb(38,50,56)" stroke-width="0.950778" stroke-miterlimit="10"/><path id="eG7Xg0IVNKd32" d="M254.48,140.24C258.266496,140.238763,261.38376,137.262393,261.56,133.48C261.56,133.59,261.56,133.7,261.56,133.81C261.56,137.725699,258.385699,140.9,254.47,140.9C250.554301,140.9,247.38,137.725699,247.38,133.81C247.38,133.7,247.38,133.59,247.38,133.48C247.556589,137.270131,250.685769,140.249463,254.48,140.24Z" fill="rgb(38,50,56)" stroke="none" stroke-width="1"/><circle id="eG7Xg0IVNKd33" r="9.5" transform="matrix(0.929068 -0.369909 0.369909 0.929068 254.483114 156.130944)" fill="rgb(38,50,56)" stroke="none" stroke-width="1"/><circle id="eG7Xg0IVNKd34" r="9.5" transform="matrix(0.157469 -0.987524 0.987524 0.157469 254.490598 157.280059)" fill="rgb(107,70,193)" stroke="rgb(38,50,56)" stroke-width="0.950778" stroke-miterlimit="10"/><path id="eG7Xg0IVNKd35" d="M254.48,149.07C259.263478,149.071677,263.192097,152.850214,263.38,157.63C263.38,157.51,263.38,157.39,263.38,157.27C263.218967,152.462557,259.275139,148.648622,254.465,148.648622C249.654861,148.648622,245.711033,152.462557,245.55,157.27C245.55,157.39,245.55,157.51,245.55,157.63C245.733224,152.836281,249.682821,149.050329,254.48,149.07Z" fill="rgb(38,50,56)" stroke="none" stroke-width="1"/><circle id="eG7Xg0IVNKd36" r="7.09" transform="matrix(0.16057 -0.987024 0.987024 0.16057 254.481207 157.274876)" fill="rgb(255,255,255)" stroke="rgb(38,50,56)" stroke-width="0.950778" stroke-miterlimit="10"/><path id="eG7Xg0IVNKd37" d="M254.48,163.7C258.266496,163.698763,261.38376,160.722393,261.56,156.94C261.56,157.05,261.56,157.16,261.56,157.27C261.56,161.185699,258.385699,164.36,254.47,164.36C250.554301,164.36,247.38,161.185699,247.38,157.27C247.38,157.16,247.38,157.05,247.38,156.94C247.556589,160.730131,250.685769,163.709463,254.48,163.7Z" fill="rgb(38,50,56)" stroke="none" stroke-width="1"/><path id="eG7Xg0IVNKd38" d="M238.74,75.34L270.22,75.34C266.22,64.77,260.67,54.95,254.48,54.95L254.48,54.95C248.3,55,242.72,64.77,238.74,75.34Z" fill="rgb(38,50,56)" stroke="rgb(38,50,56)" stroke-width="0.950778" stroke-miterlimit="10"/><line id="eG7Xg0IVNKd39" x1="233.68" y1="169.13" x2="233.71" y2="169.73" fill="rgb(252,252,252)" stroke="none" stroke-width="1"/><line id="eG7Xg0IVNKd40" x1="233.69" y1="169.28" x2="233.71" y2="169.73" fill="rgb(155,167,172)" stroke="none" stroke-width="1"/><line id="eG7Xg0IVNKd41" x1="233.7" y1="169.54" x2="233.71" y2="169.73" fill="rgb(105,123,130)" stroke="none" stroke-width="1"/></g><g id="eG7Xg0IVNKd42"><rect id="eG7Xg0IVNKd43" width="228.78" height="148.03" rx="0" ry="0" transform="matrix(1 0 0 1 150.97 252.63)" fill="rgb(38,50,56)" stroke="rgb(38,50,56)" stroke-width="0.950778" stroke-linecap="round" stroke-linejoin="round"/><rect id="eG7Xg0IVNKd44" width="228.78" height="45.87" rx="0" ry="0" transform="matrix(1 0 0 1 150.97 354.79)" fill="rgb(107,107,107)" stroke="rgb(38,50,56)" stroke-width="0.950778" stroke-linecap="round" stroke-linejoin="round"/><rect id="eG7Xg0IVNKd45" width="78.6" height="60.22" rx="0" ry="0" transform="matrix(1 0 0 1 156.52 315.38)" fill="rgb(107,70,193)" stroke="rgb(38,50,56)" stroke-width="0.950778" stroke-linecap="round" stroke-linejoin="round"/><rect id="eG7Xg0IVNKd46" width="72.26" height="52.97" rx="0" ry="0" transform="matrix(1 0 0 1 159.68 319)" fill="rgb(255,255,255)" stroke="rgb(38,50,56)" stroke-width="0.950778" stroke-linecap="round" stroke-linejoin="round"/><line id="eG7Xg0IVNKd47" x1="179.66" y1="364.75" x2="176.09" y2="367.91" fill="none" stroke="rgb(38,50,56)" stroke-width="0.950778" stroke-linecap="round" stroke-linejoin="round"/><line id="eG7Xg0IVNKd48" x1="229.29" y1="320.78" x2="184.79" y2="360.2" fill="none" stroke="rgb(38,50,56)" stroke-width="0.950778" stroke-linecap="round" stroke-linejoin="round"/><line id="eG7Xg0IVNKd49" x1="219.15" y1="335.62" x2="193.7" y2="358.17" fill="none" stroke="rgb(38,50,56)" stroke-width="0.950778" stroke-linecap="round" stroke-linejoin="round"/><rect id="eG7Xg0IVNKd50" width="78.6" height="60.22" rx="0" ry="0" transform="matrix(1 0 0 1 296.11 315.38)" fill="rgb(107,70,193)" stroke="rgb(38,50,56)" stroke-width="0.950778" stroke-linecap="round" stroke-linejoin="round"/><rect id="eG7Xg0IVNKd51" width="72.26" height="52.97" rx="0" ry="0" transform="matrix(1 0 0 1 299.28 319)" fill="rgb(255,255,255)" stroke="rgb(38,50,56)" stroke-width="0.950778" stroke-linecap="round" stroke-linejoin="round"/><line id="eG7Xg0IVNKd52" x1="319.26" y1="364.75" x2="315.69" y2="367.91" fill="none" stroke="rgb(38,50,56)" stroke-width="0.950778" stroke-linecap="round" stroke-linejoin="round"/><line id="eG7Xg0IVNKd53" x1="368.88" y1="320.78" x2="324.39" y2="360.2" fill="none" stroke="rgb(38,50,56)" stroke-width="0.950778" stroke-linecap="round" stroke-linejoin="round"/><line id="eG7Xg0IVNKd54" x1="358.75" y1="335.62" x2="333.3" y2="358.17" fill="none" stroke="rgb(38,50,56)" stroke-width="0.950778" stroke-linecap="round" stroke-linejoin="round"/><polygon id="eG7Xg0IVNKd55" points="300.11,391.61 296.11,385.36 302.36,387.61 301.61,381.61 304.86,386.61 305.11,377.61 306.86,383.61 310.86,372.36 311.36,384.11 316.11,381.36 313.36,386.61 316.86,384.36 316.61,388.11 321.11,385.86 318.11,391.36 300.11,391.61" fill="rgb(107,70,193)" stroke="none" stroke-width="1"/><polygon id="eG7Xg0IVNKd56" points="326.36,391.61 322.36,385.36 328.61,387.61 327.86,381.61 331.11,386.61 331.36,377.61 333.11,383.61 337.11,372.36 337.61,384.11 342.36,381.36 339.61,386.61 343.11,384.36 342.86,388.11 347.36,385.86 344.36,391.36 326.36,391.61" fill="rgb(107,70,193)" stroke="none" stroke-width="1"/><polygon id="eG7Xg0IVNKd57" points="352.36,391.61 348.36,385.36 354.61,387.61 353.86,381.61 357.11,386.61 357.36,377.61 359.11,383.61 363.11,372.36 363.61,384.11 368.36,381.36 365.61,386.61 369.11,384.36 368.86,388.11 373.36,385.86 370.36,391.36 352.36,391.61" fill="rgb(107,70,193)" stroke="none" stroke-width="1"/><polygon id="eG7Xg0IVNKd58" points="158.86,391.61 154.86,385.36 161.11,387.61 160.36,381.61 163.61,386.61 163.86,377.61 165.61,383.61 169.61,372.36 170.11,384.11 174.86,381.36 172.11,386.61 175.61,384.36 175.36,388.11 179.86,385.86 176.86,391.36 158.86,391.61" fill="rgb(107,70,193)" stroke="none" stroke-width="1"/><polygon id="eG7Xg0IVNKd59" points="185.11,391.61 181.11,385.36 187.36,387.61 186.61,381.61 189.86,386.61 190.11,377.61 191.86,383.61 195.86,372.36 196.36,384.11 201.11,381.36 198.36,386.61 201.86,384.36 201.61,388.11 206.11,385.86 203.11,391.36 185.11,391.61" fill="rgb(107,70,193)" stroke="none" stroke-width="1"/><polygon id="eG7Xg0IVNKd60" points="211.11,391.61 207.11,385.36 213.36,387.61 212.61,381.61 215.86,386.61 216.11,377.61 217.86,383.61 221.86,372.36 222.36,384.11 227.11,381.36 224.36,386.61 227.86,384.36 227.61,388.11 232.11,385.86 229.11,391.36 211.11,391.61" fill="rgb(107,70,193)" stroke="none" stroke-width="1"/><rect id="eG7Xg0IVNKd61" width="228.78" height="10.6" rx="0" ry="0" transform="matrix(1 0 0 1 150.97 390.05)" fill="rgb(107,107,107)" stroke="rgb(38,50,56)" stroke-width="0.950778" stroke-linecap="round" stroke-linejoin="round"/><rect id="eG7Xg0IVNKd62" width="49.6" height="90.41" rx="0" ry="0" transform="matrix(1 0 0 1 240.25 310.24)" fill="rgb(107,70,193)" stroke="rgb(38,50,56)" stroke-width="0.950778" stroke-linecap="round" stroke-linejoin="round"/><path id="eG7Xg0IVNKd63" d="M285.92,361.73L243.39,361.73L243.39,314.64L285.92,314.64ZM285.92,366.73L243.39,366.73L243.39,395.61L285.92,395.61Z" fill="rgb(255,255,255)" stroke="rgb(38,50,56)" stroke-width="0.950778" stroke-linecap="round" stroke-linejoin="round"/><rect id="eG7Xg0IVNKd64" width="1.55" height="16.51" rx="0" ry="0" transform="matrix(1 0 0 1 286.89 350.66)" fill="rgb(38,50,56)" stroke="rgb(38,50,56)" stroke-width="0.950778" stroke-linecap="round" stroke-linejoin="round"/><line id="eG7Xg0IVNKd65" x1="249.96" y1="352.16" x2="247.5" y2="354.34" fill="none" stroke="rgb(38,50,56)" stroke-width="0.950778" stroke-linecap="round" stroke-linejoin="round"/><line id="eG7Xg0IVNKd66" x1="284.17" y1="321.86" x2="253.49" y2="349.03" fill="none" stroke="rgb(38,50,56)" stroke-width="0.950778" stroke-linecap="round" stroke-linejoin="round"/><line id="eG7Xg0IVNKd67" x1="277.18" y1="332.08" x2="259.64" y2="347.63" fill="none" stroke="rgb(38,50,56)" stroke-width="0.950778" stroke-linecap="round" stroke-linejoin="round"/><line id="eG7Xg0IVNKd68" x1="257.85" y1="390.87" x2="255.96" y2="392.55" fill="none" stroke="rgb(38,50,56)" stroke-width="0.950778" stroke-linecap="round" stroke-linejoin="round"/><line id="eG7Xg0IVNKd69" x1="284.17" y1="367.55" x2="260.57" y2="388.46" fill="none" stroke="rgb(38,50,56)" stroke-width="0.950778" stroke-linecap="round" stroke-linejoin="round"/><line id="eG7Xg0IVNKd70" x1="278.79" y1="375.42" x2="265.3" y2="387.38" fill="none" stroke="rgb(38,50,56)" stroke-width="0.950778" stroke-linecap="round" stroke-linejoin="round"/><rect id="eG7Xg0IVNKd71" width="228.29" height="30.72" rx="0" ry="0" transform="matrix(1 0 0 1 151.46 287.48)" opacity="0.3" fill="rgb(0,0,0)" stroke="none" stroke-width="1"/><rect id="eG7Xg0IVNKd72" width="235.44" height="43.82" rx="0" ry="0" transform="matrix(1 0 0 1 147.72 269.74)" fill="rgb(255,255,255)" stroke="rgb(38,50,56)" stroke-width="0.950778" stroke-linecap="round" stroke-linejoin="round"/><rect id="eG7Xg0IVNKd73" width="10.84" height="43.82" rx="0" ry="0" transform="matrix(1 0 0 1 160.3 269.74)" fill="rgb(107,70,193)" stroke="rgb(38,50,56)" stroke-width="0.950778" stroke-linecap="round" stroke-linejoin="round"/><rect id="eG7Xg0IVNKd74" width="10.84" height="43.82" rx="0" ry="0" transform="matrix(1 0 0 1 183.27 269.74)" fill="rgb(107,70,193)" stroke="rgb(38,50,56)" stroke-width="0.950778" stroke-linecap="round" stroke-linejoin="round"/><rect id="eG7Xg0IVNKd75" width="10.84" height="43.82" rx="0" ry="0" transform="matrix(1 0 0 1 206.25 269.74)" fill="rgb(107,70,193)" stroke="rgb(38,50,56)" stroke-width="0.950778" stroke-linecap="round" stroke-linejoin="round"/><rect id="eG7Xg0IVNKd76" width="10.84" height="43.82" rx="0" ry="0" transform="matrix(1 0 0 1 228.11 269.74)" fill="rgb(107,70,193)" stroke="rgb(38,50,56)" stroke-width="0.950778" stroke-linecap="round" stroke-linejoin="round"/><rect id="eG7Xg0IVNKd77" width="10.84" height="43.82" rx="0" ry="0" transform="matrix(1 0 0 1 249.97 269.74)" fill="rgb(107,70,193)" stroke="rgb(38,50,56)" stroke-width="0.950778" stroke-linecap="round" stroke-linejoin="round"/><rect id="eG7Xg0IVNKd78" width="10.84" height="43.82" rx="0" ry="0" transform="matrix(1 0 0 1 271.82 269.74)" fill="rgb(107,70,193)" stroke="rgb(38,50,56)" stroke-width="0.950778" stroke-linecap="round" stroke-linejoin="round"/><rect id="eG7Xg0IVNKd79" width="10.84" height="43.82" rx="0" ry="0" transform="matrix(1 0 0 1 293.68 269.74)" fill="rgb(107,70,193)" stroke="rgb(38,50,56)" stroke-width="0.950778" stroke-linecap="round" stroke-linejoin="round"/><rect id="eG7Xg0IVNKd80" width="10.84" height="43.82" rx="0" ry="0" transform="matrix(1 0 0 1 315.54 269.74)" fill="rgb(107,70,193)" stroke="rgb(38,50,56)" stroke-width="0.950778" stroke-linecap="round" stroke-linejoin="round"/><rect id="eG7Xg0IVNKd81" width="10.84" height="43.82" rx="0" ry="0" transform="matrix(1 0 0 1 337.4 269.74)" fill="rgb(107,70,193)" stroke="rgb(38,50,56)" stroke-width="0.950778" stroke-linecap="round" stroke-linejoin="round"/><rect id="eG7Xg0IVNKd82" width="10.84" height="43.82" rx="0" ry="0" transform="matrix(1 0 0 1 359.25 269.74)" fill="rgb(107,70,193)" stroke="rgb(38,50,56)" stroke-width="0.950778" stroke-linecap="round" stroke-linejoin="round"/></g><g id="eG7Xg0IVNKd83"><path id="eG7Xg0IVNKd84" d="M409.63,295.74C409.63,295.74,405.22,287.74,393.63,282.92C382.04,278.1,358,271.3,358.36,265.3C358.72,259.3,377.58,266.5,377.58,266.5C377.58,266.5,346.34,251.28,342.33,241.66C338.32,232.04,371.18,242.46,371.18,242.46C371.18,242.46,356.35,214.46,360.36,208.02C364.37,201.58,378.79,213.62,378.79,213.62C378.79,213.62,373.58,179.17,398.79,175.57C424,171.97,424.43,198.4,424.43,198.4C424.43,198.4,433.24,182.78,443.26,186.4C453.28,190.02,442.45,210.03,442.45,210.03C442.45,210.03,457.28,198.81,461.28,215.64C465.28,232.47,443.66,251.29,443.66,251.29C443.66,251.29,458.48,246.48,459.28,254.89C460.08,263.3,449.66,268.89,449.66,268.89C449.66,268.89,458.48,270.49,455.27,274.89C452.06,279.29,412.43,289.73,409.63,295.74Z" fill="rgb(107,70,193)" stroke="none" stroke-width="1"/><path id="eG7Xg0IVNKd85" d="M433.45,254.91C433.45,254.91,418.65,258.42,411.03,270.44L410.75,253.86C411.92,251.86,420.22,238.68,433.45,234.64C433.45,234.64,418.27,238.77,410.7,251.04L410,210.04L409.79,259.93C402.34,248.36,388.55,245,388.55,245C400.95,248.93,408.39,260.87,409.78,263.26L409.71,279.65C402.23,268.23,388.55,264.87,388.55,264.87C400.72,268.73,408.11,280.29,409.69,282.98L409.21,397.24L413.21,397.24L411.45,293.5C412.83,291.19,420.56,279.15,433.45,275.2C433.45,275.2,419.08,278.61,411.37,290.2L411.09,273.68C412.56,271.23,420.57,258.84,433.45,254.91Z" fill="rgb(38,50,56)" stroke="none" stroke-width="1"/><rect id="eG7Xg0IVNKd86" width="31.57" height="7.25" rx="0" ry="0" transform="matrix(1 0 0 1 394.43 394.22)" fill="rgb(255,255,255)" stroke="rgb(38,50,56)" stroke-width="0.950778" stroke-linecap="round" stroke-linejoin="round"/></g><g id="eG7Xg0IVNKd87"><rect id="eG7Xg0IVNKd88" width="331.86" height="6.08" rx="0" ry="0" transform="matrix(1 0 0 1 101.48 400.57)" fill="rgb(255,255,255)" stroke="rgb(38,50,56)" stroke-width="0.950778" stroke-linecap="round" stroke-linejoin="round"/><line id="eG7Xg0IVNKd89" x1="24.34" y1="406.65" x2="482" y2="406.65" fill="none" stroke="rgb(38,50,56)" stroke-width="0.950778" stroke-miterlimit="10"/></g><g id="eG7Xg0IVNKd90"><ellipse id="eG7Xg0IVNKd91" rx="64.18" ry="14.06" transform="matrix(1 0 0 1 115.18 455.37)" fill="rgb(107,70,193)" stroke="none" stroke-width="1"/><ellipse id="eG7Xg0IVNKd92" rx="64.18" ry="14.06" transform="matrix(1 0 0 1 115.18 455.37)" opacity="0.79" fill="rgb(255,255,255)" stroke="none" stroke-width="1"/><path id="eG7Xg0IVNKd93" d="M104.17,311.63C104.17,311.63,97.36,332.56,95.84,343.15C94.32,353.74,91.3,383.25,91.3,383.25C85.948602,389.921415,82.42948,397.873046,81.09,406.32C79.2,419.82,79.83,438,79.83,438C79.83,438,78.32,440.27,78.32,441.41C78.32,442.55,78.57,445.07,78.57,445.07C75.793605,447.230866,73.139508,449.544437,70.62,452C67.85,454.9,68.35,459.95,68.35,461.33C68.35,462.71,69.99,464.74,70.88,464.74C71.77,464.74,77.81,463.6,80.88,461.08C83.95,458.56,84.03,453.39,84.79,451.08C85.55,448.77,90.67,442,90.67,442C92.252979,441.833934,93.503934,440.582979,93.67,439C93.92,436.23,94.55,431.31,94.8,430.3C95.05,429.29,105.65,412.14,108.04,401.8C110.43,391.46,117.88,375.96,120.53,369.15C123.18,362.34,128.85,348.47,128.85,348.47L129.99,348.09C129.99,348.09,127.84,378.09,127.21,387.56C126.58,397.03,126.45,399.41,126.45,411.89C126.45,424.37,131.37,444.89,131.37,444.89L131.37,451.32C131.37,451.7,132.37,452.08,134.27,452.2C136.17,452.32,141.73,452.35,143.12,453.2C144.51,454.05,150.18,454.71,155.98,454.46C161.78,454.21,164.81,453.2,164.18,452.06C163.55,450.92,153.59,447.06,151.95,446.01C150.31,444.96,146.5,442.45,146.5,442.45C146.5,442.45,146.76,439.18,145.87,437.66C144.98,436.14,144.61,436.28,144.61,434.66C144.61,433.04,148.27,411.58,149.28,401.37C150.29,391.16,155.71,376.65,156.09,365.81C156.47,354.97,155.46,346.64,154.57,334.28C154.052287,326.891625,152.744832,319.579936,150.67,312.47Z" fill="rgb(38,50,56)" stroke="rgb(38,50,56)" stroke-width="0.950778" stroke-linecap="round" stroke-linejoin="round"/><polygon id="eG7Xg0IVNKd94" points="145.15,312.4 127.62,312.07 127.62,316.29 145.15,316.29 145.15,312.4" fill="rgb(89,89,89)" stroke="rgb(38,50,56)" stroke-width="0.950778" stroke-linecap="round" stroke-linejoin="round"/><path id="eG7Xg0IVNKd95" d="M147.29,316.29L151.73,316.29C151.14,313.89,150.73,312.51,150.73,312.51L147.32,312.44Z" fill="rgb(89,89,89)" stroke="rgb(38,50,56)" stroke-width="0.950778" stroke-linecap="round" stroke-linejoin="round"/><polygon id="eG7Xg0IVNKd96" points="112.61,316.29 123.33,316.29 123.33,311.99 112.61,311.79 112.61,316.29" fill="rgb(89,89,89)" stroke="rgb(38,50,56)" stroke-width="0.950778" stroke-linecap="round" stroke-linejoin="round"/><path id="eG7Xg0IVNKd97" d="M110.34,311.74L104.17,311.63C104.17,311.63,103.57,313.45,102.7,316.29L110.34,316.29Z" fill="rgb(89,89,89)" stroke="rgb(38,50,56)" stroke-width="0.950778" stroke-linecap="round" stroke-linejoin="round"/><rect id="eG7Xg0IVNKd98" width="7.06" height="3.91" rx="0" ry="0" transform="matrix(1 0 0 1 133.55 312.26)" fill="rgb(255,255,255)" stroke="rgb(38,50,56)" stroke-width="0.950778" stroke-linecap="round" stroke-linejoin="round"/><path id="eG7Xg0IVNKd99" d="M167.34,328.78C167.34,328.78,169.61,338.48,168.98,344.41C168.74,346.67,165.7,353.24,165.07,353.62C164.455358,353.81673,163.794642,353.81673,163.18,353.62C163.642472,352.383852,164.020016,351.117575,164.31,349.83C164.44,348.83,164.57,346.05,164.57,346.05C163.841036,347.665963,162.995471,349.226749,162.04,350.72C161.186579,351.575259,160.208887,352.296728,159.14,352.86C158.687475,352.83158,158.27209,352.599994,158.01,352.23C157.76,351.85,159.01,350.97,159.65,349.58C160.29,348.19,161.29,345.58,161.29,345.58C160.379823,346.749121,159.37655,347.842689,158.29,348.85C157.296134,349.576346,156.187396,350.130714,155.01,350.49C154.63,350.49,153.88,349.11,154.26,348.98C154.64,348.85,157.79,347.09,158.16,346.46C158.506345,345.93212,158.887173,345.427689,159.3,344.95C157.819814,345.548,156.303489,346.052329,154.76,346.46C154.13,346.46,153.88,345.46,153.88,345.46L158.04,343.32L159.04,340.79C158.526612,338.850058,158.526612,336.809942,159.04,334.87C159.92,331.97,160.3,329.95,160.3,329.95Z" fill="rgb(96,63,42)" stroke="rgb(38,50,56)" stroke-width="0.950778" stroke-linecap="round" stroke-linejoin="round"/><path id="eG7Xg0IVNKd100" d="M162.93,332.94C162.93,332.94,163.05,337.1,163.81,337.94C164.57,338.78,165.95,339.83,165.95,340.71C165.95,341.59,164.57,346.64,164.95,347.02C165.184761,347.328489,165.576663,347.473504,165.955684,347.392132C166.334704,347.310761,166.632549,347.017664,166.72,346.64C167.519362,343.87831,168.068248,341.050208,168.36,338.19" fill="rgb(96,63,42)" stroke="rgb(38,50,56)" stroke-width="0.950778" stroke-linecap="round" stroke-linejoin="round"/><path id="eG7Xg0IVNKd101" d="M156.62,259.67C156.62,259.67,160.03,280.23,160.4,286.41C160.77,292.59,160.78,297.25,160.78,297.25L167.34,328.78L160.28,329.91C160.28,329.91,151.96,312.91,150.28,310.91C148.6,308.91,147.75,305.11,148.39,299.69C149.03,294.27,148.51,264.63,149.77,261.1C150.225985,259.733229,151.373779,258.711627,152.784201,258.417189C154.194624,258.12275,155.655278,258.599815,156.62,259.67Z" fill="rgb(255,255,255)" stroke="rgb(38,50,56)" stroke-width="0.950778" stroke-linecap="round" stroke-linejoin="round"/><line id="eG7Xg0IVNKd102" x1="159.4" y1="327.89" x2="166.46" y2="326" fill="none" stroke="rgb(38,50,56)" stroke-width="0.950778" stroke-linecap="round" stroke-linejoin="round"/><path id="eG7Xg0IVNKd103" d="M116.27,239C116.27,239,88.65,250.46,87.39,251C86.13,251.54,85.25,251,84.62,253.52C83.99,256.04,73.52,301,74,304.56C74.48,308.12,82.22,339,82.22,339L90.93,337.49L91.93,300.29L96.6,288.43C96.6,288.43,102.78,303.94,102.65,305.21C102.52,306.48,101.01,309.37,101.9,311.01C102.342807,311.904712,102.990324,312.682418,103.79,313.28L151.79,313.28C151.79,313.28,154.79,312.28,154.94,310.88C154.843532,308.847254,154.592811,306.82477,154.19,304.83C153.787189,302.83523,158.47,287.93,158.47,276.2C158.47,264.47,157.09,254.77,155.19,251.99C153.29,249.21,146.49,246.44,140.32,244.3C134.15,242.16,128.97,240.14,123.42,239.64C117.87,239.14,116.27,239,116.27,239Z" fill="rgb(255,255,255)" stroke="rgb(38,50,56)" stroke-width="0.950778" stroke-linecap="round" stroke-linejoin="round"/><path id="eG7Xg0IVNKd104" d="M137.2,248.45C137.2,248.45,141.48,267.67,141.48,278.45C141.48,289.23,141.77,302.13,142.35,304.18C142.93,306.23,143.82,309.73,141.77,312.07" fill="none" stroke="rgb(38,50,56)" stroke-width="0.950778" stroke-linecap="round" stroke-linejoin="round"/><line id="eG7Xg0IVNKd105" x1="96.6" y1="288.42" x2="104.29" y2="269.76" fill="none" stroke="rgb(38,50,56)" stroke-width="0.950778" stroke-linecap="round" stroke-linejoin="round"/><line id="eG7Xg0IVNKd106" x1="100.51" y1="279.85" x2="107.7" y2="270.77" fill="none" stroke="rgb(38,50,56)" stroke-width="0.950778" stroke-linecap="round" stroke-linejoin="round"/><line id="eG7Xg0IVNKd107" x1="81.34" y1="335.08" x2="90.93" y2="334.07" fill="none" stroke="rgb(38,50,56)" stroke-width="0.950778" stroke-linecap="round" stroke-linejoin="round"/><polygon id="eG7Xg0IVNKd108" points="142.5,242.53 145.4,248.7 138.84,245.05 142.5,242.53" fill="rgb(255,255,255)" stroke="rgb(38,50,56)" stroke-width="0.950778" stroke-linecap="round" stroke-linejoin="round"/><polygon id="eG7Xg0IVNKd109" points="137.2,248.45 142.5,242.53 137.33,240 137.2,248.45" fill="rgb(255,255,255)" stroke="rgb(38,50,56)" stroke-width="0.950778" stroke-linecap="round" stroke-linejoin="round"/><path id="eG7Xg0IVNKd110" d="M138.09,200.54C138.09,200.54,141.49,204.32,141.49,205.45C141.462804,206.38086,141.379318,207.309223,141.24,208.23C141.100682,209.150777,146.91,211,146.24,212.14C145.57,213.28,144.73,215.41,144.73,215.41C144.73,215.41,149.39,225.63,148.73,226.64C148.07,227.65,141.67,233.82,140.54,236.85C139.41,239.88,137.13,248.45,137.13,248.45L115.44,236.45C115.44,236.45,118.09,232.17,118.22,229.27C118.35,226.37,118.72,224.1,118.22,222.33C117.72,220.56,115.07,216.02,114.81,211.61C114.55,207.2,119.35,202.03,125.66,199C131.97,195.97,138.09,200.54,138.09,200.54Z" fill="rgb(96,63,42)" stroke="rgb(38,50,56)" stroke-width="0.950778" stroke-linecap="round" stroke-linejoin="round"/><path id="eG7Xg0IVNKd111" d="M135.06,218.31C136.573619,220.02517,139.034451,220.541742,141.11,219.58" fill="none" stroke="rgb(38,50,56)" stroke-width="0.950778" stroke-linecap="round" stroke-linejoin="round"/><path id="eG7Xg0IVNKd112" d="M137.87,210.29C138.21,211.02,138.09,211.79,137.62,212C137.15,212.21,136.49,211.81,136.15,211.08C135.81,210.35,135.94,209.58,136.41,209.37C136.88,209.16,137.54,209.56,137.87,210.29Z" fill="rgb(38,50,56)" stroke="none" stroke-width="1"/><path id="eG7Xg0IVNKd113" d="M132.66,209.74C133.399227,207.856663,135.322828,206.715683,137.33,206.97" fill="none" stroke="rgb(38,50,56)" stroke-width="1.90156" stroke-linecap="round" stroke-linejoin="round"/><path id="eG7Xg0IVNKd114" d="M123.08,221.47C123.08,221.47,126.36,221.47,126.36,219.7C126.36,217.93,123.84,214.41,124.47,212.64C125.1,210.87,128.12,209.64,126.99,207.72C125.86,205.8,123.58,205.83,124.85,204.57C126.12,203.31,135.44,204.95,138.59,201.57C141.74,198.19,143,193,140.73,192C138.46,191,135.56,193.51,135.56,193.51C135.56,193.51,134.05,189.98,129.51,191.24C124.97,192.5,118.67,197.42,115.14,202.34C111.61,207.26,110.34,209.02,111.73,212.34C113.12,215.66,117.66,221.8,119.42,222.81C121.18,223.82,123.08,221.47,123.08,221.47Z" fill="rgb(38,50,56)" stroke="rgb(38,50,56)" stroke-width="0.950778" stroke-linecap="round" stroke-linejoin="round"/><path id="eG7Xg0IVNKd115" d="M125.1,223.11C125.1,223.11,121.57,218.06,118.54,218.69C115.51,219.32,116.27,223.74,118.29,225.75C120.31,227.76,123.84,226.38,124.59,225.88C124.59,225.88,127.37,232.56,130.14,232.82C132.91,233.08,140.73,229.66,140.73,229.66" fill="rgb(96,63,42)" stroke="rgb(38,50,56)" stroke-width="0.950778" stroke-linecap="round" stroke-linejoin="round"/><polygon id="eG7Xg0IVNKd116" points="133.29,241.64 137.2,248.45 129.64,244.67 133.29,241.64" fill="rgb(255,255,255)" stroke="rgb(38,50,56)" stroke-width="0.950778" stroke-linecap="round" stroke-linejoin="round"/><polygon id="eG7Xg0IVNKd117" points="115.89,233.32 133.29,241.64 129.26,251.48 113.12,239.37 115.89,233.32" fill="rgb(255,255,255)" stroke="rgb(38,50,56)" stroke-width="0.950778" stroke-linecap="round" stroke-linejoin="round"/><path id="eG7Xg0IVNKd118" d="M139.85,317.8C139.85,317.8,141.49,328.4,139.72,334.2" fill="none" stroke="rgb(92,101,106)" stroke-width="0.950778" stroke-linecap="round" stroke-linejoin="round"/><path id="eG7Xg0IVNKd119" d="M134.18,320.2C134.18,320.2,135.82,330.67,135.18,337.98" fill="none" stroke="rgb(92,101,106)" stroke-width="0.950778" stroke-linecap="round" stroke-linejoin="round"/><path id="eG7Xg0IVNKd120" d="M140,336C139.62,336.38,136.72,337.77,136,339.53C135.201635,341.214365,134.317133,342.856536,133.35,344.45" fill="none" stroke="rgb(92,101,106)" stroke-width="0.950778" stroke-linecap="round" stroke-linejoin="round"/><line id="eG7Xg0IVNKd121" x1="120.05" y1="317.17" x2="116.65" y2="327.51" fill="none" stroke="rgb(92,101,106)" stroke-width="0.950778" stroke-linecap="round" stroke-linejoin="round"/><line id="eG7Xg0IVNKd122" x1="121.44" y1="317.3" x2="120.68" y2="333.57" fill="none" stroke="rgb(92,101,106)" stroke-width="0.950778" stroke-linecap="round" stroke-linejoin="round"/><line id="eG7Xg0IVNKd123" x1="148.8" y1="317.17" x2="150.95" y2="326.51" fill="none" stroke="rgb(92,101,106)" stroke-width="0.950778" stroke-linecap="round" stroke-linejoin="round"/><path id="eG7Xg0IVNKd124" d="M148.3,317.43C148.3,317.43,147.42,326.25,147.42,326.63" fill="none" stroke="rgb(92,101,106)" stroke-width="0.950778" stroke-linecap="round" stroke-linejoin="round"/><path id="eG7Xg0IVNKd125" d="M94.78,353.35L76.69,353.35C75.916801,353.35,75.29,353.976801,75.29,354.75L75.29,362.13C75.29,362.903199,75.916801,363.53,76.69,363.53L78.81,363.53C78.036801,363.53,77.41,362.903199,77.41,362.13L77.41,357.31C77.41,356.536801,78.036801,355.91,78.81,355.91L92.66,355.91C93.433199,355.91,94.06,356.536801,94.06,357.31L94.06,362.13C94.06,362.903199,93.433199,363.53,92.66,363.53L94.78,363.53C95.553199,363.53,96.18,362.903199,96.18,362.13L96.18,354.75C96.18,353.976801,95.553199,353.35,94.78,353.35Z" fill="rgb(38,50,56)" stroke="rgb(38,50,56)" stroke-width="0.950778" stroke-linecap="round" stroke-linejoin="round"/><path id="eG7Xg0IVNKd126" d="M82.22,339C82.22,339,79.57,349.34,80.07,351.1C80.57,352.86,81.97,353.88,82.07,354.26C82.25734,354.820749,82.048974,355.437675,81.56,355.77L80.93,356.15C80.93,356.15,80.43,356.15,80.81,356.9C80.963653,357.309861,81.243864,357.660126,81.61,357.9C82.44,358.32,82.95,357.47,83.7,357.36C84.45,357.25,84.92,358.07,85.63,358.02C86.34,357.97,86.72,357.26,87.41,357.32C88.1,357.38,88.55,358.63,89.55,358.19C89.98,357.99,90.29,357.56,90.72,357.34C91.36,357.01,92.27,357.1,92.84,356.61C93.29811,356.13074,93.580136,355.510281,93.64,354.85C93.87,353.56,90.9,337.46,90.9,337.46Z" fill="rgb(96,63,42)" stroke="rgb(38,50,56)" stroke-width="0.950778" stroke-linecap="round" stroke-linejoin="round"/><rect id="eG7Xg0IVNKd127" width="61.62" height="42.06" rx="3.99" ry="3.99" transform="matrix(1 0 0 1 53.72 360.32)" fill="rgb(107,70,193)" stroke="rgb(38,50,56)" stroke-width="0.950778" stroke-linecap="round" stroke-linejoin="round"/><path id="eG7Xg0IVNKd128" d="M53.86,364.2L83,384.78C84.616771,385.940057,86.793229,385.940057,88.41,384.78L115.18,365.3" fill="none" stroke="rgb(38,50,56)" stroke-width="0.950778" stroke-linecap="round" stroke-linejoin="round"/><rect id="eG7Xg0IVNKd129" width="4.96" height="6.97" rx="0" ry="0" transform="matrix(1 0 0 1 83.19 382.01)" fill="rgb(255,255,255)" stroke="rgb(38,50,56)" stroke-width="0.950778" stroke-linecap="round" stroke-linejoin="round"/></g></svg>