<svg xmlns="http://www.w3.org/2000/svg" xmlns:xlink="http://www.w3.org/1999/xlink" viewBox="0 0 500 500"><defs><clipPath id="freepik--clip-path--inject-125"><polygon points="295.23 316.92 299.22 314.36 301.4 318.57 306.14 318.35 305.92 323.09 310.13 325.26 307.57 329.26 310.13 333.25 305.92 335.43 306.14 340.17 301.4 339.94 299.22 344.16 295.23 341.6 291.24 344.16 289.06 339.94 284.32 340.17 284.54 335.43 280.33 333.25 282.89 329.26 280.33 325.26 284.54 323.09 284.32 318.35 289.06 318.57 291.24 314.36 295.23 316.92" style="fill:#fff;stroke:#263238;stroke-linecap:round;stroke-linejoin:round"></polygon></clipPath><clipPath id="freepik--clip-path-2--inject-125"><path d="M155.48,335.91c.13-.5.64-11.8,3.17-17.53A26.45,26.45,0,0,0,167.28,298h0a10.75,10.75,0,0,0-6.16-9.51,11,11,0,0,0-2.79-.85c-2.4-.38-5-.39-7-1.63.18.25-.67,0-.79-.32a33,33,0,0,0-4.4-3.07c-.56.61-.68,1.34-1.09,2.94-.24.95-.59,2.21-1.2,3.95-1.05,3,1.19,4.46,1.33,5.29l.15.9A61.35,61.35,0,0,1,141.56,327c-3.3-4.33-6.58-23.58-7.06-30.27a8.06,8.06,0,0,1,0-2.17,6,6,0,0,0,.37-1.42c0-1.15,0-1.22-1.84-4a25.21,25.21,0,0,1-2.33-4.65h0l-.25-.57c-4.2,3.53-13.46,6.64-19,8.63,1.83,0,3.31,3.77,3.68,6.15s3.85,20.88,3.85,34c0,1.38-.35,7.41-.35,7.41a38.37,38.37,0,0,0-8.33,22.44,17.69,17.69,0,0,0,11.52,2.33c6-.78,11.49-3.86,16.91-6.62a4.26,4.26,0,0,1,2-.62,4.17,4.17,0,0,1,1.38.38c7.11,2.85,14.92,5.93,22.24,4.77A119.71,119.71,0,0,0,157,341.78C156,339.6,155.13,337.12,155.48,335.91Z" style="fill:#6B46C1"></path></clipPath><clipPath id="freepik--clip-path-3--inject-125"><path d="M168.13,297.39a13.69,13.69,0,0,0-4.78-7.83h0c-1.39,8.83-.41,20.45-4.49,28.41l-.21.41a36.46,36.46,0,0,1,2.22,11.22c-3.13,2.82-4.52,4.57-5.39,6.31,1-.21,3.57-1.47,5.31-1.35,2.59.18,3.86,1.44,6.08,2.79a16.83,16.83,0,0,1,5.15,5.92c.75-2.08,2.53-5.37,2.53-9.37C174.55,333.9,172.3,317.32,168.13,297.39Z" style="fill:#6B46C1;stroke:#263238;stroke-linecap:round;stroke-linejoin:round"></path></clipPath><clipPath id="freepik--clip-path-4--inject-125"><path d="M116.26,329.19A36.43,36.43,0,0,1,118.47,318l-1-19.73a6,6,0,0,0-5.94-5.63c-4.94,18.46-9,22-8.9,40.88,0,4,1.78,7.29,2.52,9.37a16.68,16.68,0,0,1,5.16-5.92c2.22-1.35,3.48-2.61,6.07-2.79,1.75-.12,4.32,1.14,5.32,1.35C120.77,333.76,119.39,332,116.26,329.19Z" style="fill:#6B46C1"></path></clipPath><clipPath id="freepik--clip-path-5--inject-125"><path d="M159.3,334.58l-.27.3c-.84.92-1.65,1.88-2.42,2.85-1,1.22-1.87,2.47-2.73,3.77s-1.72,2.71-2.61,4.05a58.33,58.33,0,0,1-5.64,7.19,4.92,4.92,0,0,1-1.16,1,5.31,5.31,0,0,1-1.94.51c-2.95.41-6,1.06-8.28,3a19.76,19.76,0,0,1-2.74,2.44c-1.11.63-2.71,1.09-2.76,2.38a1.87,1.87,0,0,0,.27,1,5.27,5.27,0,0,0,5.06,2.4,14.88,14.88,0,0,0,5.58-1.91,123.92,123.92,0,0,0,11.23-6.2c3-1.92,5.91-4.06,8.74-6.26a74.36,74.36,0,0,0,7-5.93,34.46,34.46,0,0,0,3.85-4.41C168.12,337.82,163.4,334.24,159.3,334.58Z" style="fill:#fff;stroke:#263238;stroke-linecap:round;stroke-linejoin:round"></path></clipPath><clipPath id="freepik--clip-path-6--inject-125"><path d="M418.68,214.21l9.63-2.63s11.41,33.28,11.4,37.32c0,7.3-1.89,9.58-5.32,9.56-.5,0-23.72-7.06-30-7.93-17.32-2.4-15.58-26.45-15.58-26.45s19.06,7.52,24.77,10a63.7,63.7,0,0,0,11.92,3.75Z" style="fill:#6B46C1;stroke:#263238;stroke-linecap:round;stroke-linejoin:round"></path></clipPath><clipPath id="freepik--clip-path-7--inject-125"><path d="M403.3,237.44c.29-2.91-1.05-7.29-1.05-7.3-1.42-2-9.11-5.2-11.95-7.23S382.72,219,379.87,219s-8.83.15-8.83.15a102,102,0,0,1-9.78,4.1c-3.15.94-17.07,7.09-17.07,8.2S347,290.08,347,290.08l-2.12,20.84a6.32,6.32,0,0,0,8.06,6.72c11-3.2,26.75-7.43,26.75-7.43l16.65,5.28c4.53,1.62,4.6-3.82,3.84-8.57l-5.71-24.25Z" style="fill:#6B46C1;stroke:#263238;stroke-linecap:round;stroke-linejoin:round"></path></clipPath><clipPath id="freepik--clip-path-8--inject-125"><path d="M343.86,232c-.31,1.55-14.93,32.84-16,33.46s-1.7.16-1.7.16l-16.05-20-9.15,6.35a172.65,172.65,0,0,0,9.76,18.44c6,9.92,16.59,17.38,18.9,16.59s18-25.74,18-25.74l2.46-17.85A10.87,10.87,0,0,0,343.86,232Z" style="fill:#6B46C1"></path></clipPath><clipPath id="freepik--clip-path-9--inject-125"><polygon points="314.46 81.06 323.27 75.41 328.07 84.71 338.52 84.22 338.04 94.67 347.33 99.47 341.69 108.28 347.33 117.09 338.04 121.89 338.52 132.34 328.07 131.85 323.27 141.15 314.46 135.5 305.66 141.15 300.86 131.85 290.41 132.34 290.89 121.89 281.6 117.09 287.25 108.28 281.6 99.47 290.89 94.67 290.41 84.22 300.86 84.71 305.66 75.41 314.46 81.06" style="fill:#6B46C1;stroke:#263238;stroke-linecap:round;stroke-linejoin:round"></polygon></clipPath></defs><g id="freepik--background-simple--inject-125"><path d="M317.3,74a21.58,21.58,0,0,1-14.23-9c-15.76-22.59-41.94-37.79-69.46-39.8C203.14,23,172,37,153.39,61.22c-12.79,16.7-21.55,39.13-41.4,46.1-15.37,5.4-32.71-.59-48.5,3.43-19,4.83-32.34,25.64-28.85,44.91,6.22,34.24,54,49.55,58.14,84.1,2.73,22.76-14.92,42.09-28.17,60.8a188.31,188.31,0,0,0-32.18,79.12c-3.22,20.38-2.09,43.72,12.63,58.17,13.2,13,33.86,15,52.08,11.86s35.45-10.72,53.59-14.33c79.76-15.89,157.37,45.73,238.43,39.19,21.88-1.77,45.41-10.27,55.64-29.69,11.05-21,2.75-47.08-9.74-67.26s-29.17-38.27-36.4-60.88c-11.6-36.3,3.94-76,25.95-107.12,13.41-19,29.94-37.79,31.73-60.94,2.28-29.5-21.5-56-49.08-66.69-26.86-10.45-56.6-9.32-85.43-7.75A21.49,21.49,0,0,1,317.3,74Z" style="fill:#6B46C1"></path><g style="opacity:0.7000000000000001"><path d="M317.3,74a21.58,21.58,0,0,1-14.23-9c-15.76-22.59-41.94-37.79-69.46-39.8C203.14,23,172,37,153.39,61.22c-12.79,16.7-21.55,39.13-41.4,46.1-15.37,5.4-32.71-.59-48.5,3.43-19,4.83-32.34,25.64-28.85,44.91,6.22,34.24,54,49.55,58.14,84.1,2.73,22.76-14.92,42.09-28.17,60.8a188.31,188.31,0,0,0-32.18,79.12c-3.22,20.38-2.09,43.72,12.63,58.17,13.2,13,33.86,15,52.08,11.86s35.45-10.72,53.59-14.33c79.76-15.89,157.37,45.73,238.43,39.19,21.88-1.77,45.41-10.27,55.64-29.69,11.05-21,2.75-47.08-9.74-67.26s-29.17-38.27-36.4-60.88c-11.6-36.3,3.94-76,25.95-107.12,13.41-19,29.94-37.79,31.73-60.94,2.28-29.5-21.5-56-49.08-66.69-26.86-10.45-56.6-9.32-85.43-7.75A21.49,21.49,0,0,1,317.3,74Z" style="fill:#fff"></path></g></g><g id="freepik--Device--inject-125"><path d="M248.7,337.86H230.94a4.54,4.54,0,0,0-3.62,1.89,4.3,4.3,0,0,0-.85,2.21l-.78,8.93-1.36,15.53-1.6,18.24a3.84,3.84,0,0,0,.53,2.34,3.8,3.8,0,0,0,3.22,1.76h17.78a4.57,4.57,0,0,0,4.46-4.1l3.73-42.7A3.7,3.7,0,0,0,248.7,337.86Z" style="fill:#263238;stroke:#263238;stroke-linecap:round;stroke-linejoin:round"></path><path d="M229.31,338.82h17.77a2.93,2.93,0,0,1,3,3.25l-3.74,42.69a3.61,3.61,0,0,1-3.53,3.25H225a2.93,2.93,0,0,1-3-3.25l3.73-42.69A3.63,3.63,0,0,1,229.31,338.82Z" style="fill:#bfbfbf;stroke:#263238;stroke-linecap:round;stroke-linejoin:round"></path><path d="M244.48,338.84h0a2.47,2.47,0,0,1-2.42,2.23H234a2,2,0,0,1-2-2.23h12.51Z" style="fill:#263238;stroke:#263238;stroke-linecap:round;stroke-linejoin:round"></path><path d="M230.06,379.15c-.14-2.75-.26-5.09-.25-5.28,0-.49,3-3.56,3.75-4.42s.25-3.59.25-3.59c0-.78-1.16-1.28-1.16-1.28s-5.54.49-6.23.87-.4.78-.41,1.55.7,5.27.7,5.27-.4,2.75-.91,6.31Z" style="fill:#fff;stroke:#263238;stroke-linecap:round;stroke-linejoin:round"></path><path d="M224.12,364.68a.46.46,0,0,1,0-.2.48.48,0,0,1,.95.14l.13,2.23,9.22-1.11,0-1.92a.48.48,0,1,1,1,0l0,2.74-11,1.32Z" style="fill:#263238"></path><polygon points="232.66 364.57 226.43 365.45 226.79 367.6 232.82 367.11 232.66 364.57" style="fill:#fff;stroke:#263238;stroke-linecap:round;stroke-linejoin:round"></polygon><path d="M229.45,370.26c-.66-1.85,1.61-3.86,1.61-3.86s-1-.11-1.44-.12-.48-.3-.47-.88,4.19-.81,4.48-.61.26,2.62.26,2.62" style="fill:#fff;stroke:#263238;stroke-linecap:round;stroke-linejoin:round"></path><line x1="232.34" y1="366.52" x2="231.08" y2="366.4" style="fill:none;stroke:#263238;stroke-linecap:round;stroke-linejoin:round"></line><polygon points="241.3 358.27 211.75 344.15 207.75 367.78 240.22 363.72 241.3 358.27" style="fill:#6B46C1;stroke:#263238;stroke-linecap:round;stroke-linejoin:round"></polygon><path d="M242.31,364.12l-2.09-.42,1.08-5.43,2.09.41a2.77,2.77,0,0,1,2.17,3.26h0A2.77,2.77,0,0,1,242.31,364.12Z" style="fill:#6B46C1;stroke:#263238;stroke-linecap:round;stroke-linejoin:round"></path><polygon points="230.84 375.17 230.55 373.22 225.14 373.52 225.47 375.78 230.84 375.17" style="fill:#fff;stroke:#263238;stroke-linecap:round;stroke-linejoin:round"></polygon><path d="M232.84,388.11H226a3.64,3.64,0,0,1-1.2-.19c0-.21,0-.43,0-.65-.08-6.17-.09-12-.09-12l.66-.07.91-.09,3.54-.35.92-.09.19,0,1.77,12.62Z" style="fill:#6B46C1"></path><path d="M249.74,399.69a2.44,2.44,0,0,1-.55.2Z" style="fill:#6B46C1"></path><path d="M232.72,387.28l.12.83H226a3.64,3.64,0,0,1-1.2-.19c0-.21,0-.43,0-.65-.08-6.17-.09-12-.09-12l.66-.07.91-.09,3.54-.35.92-.09.19,0Z" style="fill:none;stroke:#263238;stroke-linecap:round;stroke-linejoin:round"></path><path d="M215,345.41a4.3,4.3,0,0,0-4.82-.87c-2.34,1.06-5.64,4.37-6.78,9.3-2.38,10.27,2.21,14,4.47,13.94C216.32,367.52,221.23,351.62,215,345.41Z" style="fill:#263238;stroke:#263238;stroke-linecap:round;stroke-linejoin:round"></path><path d="M209.49,358.33l6.71,2.46s2.35-4.37,1.6-8.24l-8.31,1.05S210.57,355.33,209.49,358.33Z" style="fill:#6B46C1;stroke:#263238;stroke-linecap:round;stroke-linejoin:round"></path><path d="M211.23,356c0,1.3-.78,2.36-1.74,2.36s-1.75-1.06-1.75-2.36.78-2.37,1.75-2.37S211.23,354.66,211.23,356Z" style="fill:#fff;stroke:#263238;stroke-linecap:round;stroke-linejoin:round"></path><path d="M338.43,389.56H301c0-2.56,4.76-4.78,11.52-5.71v-16H326.9v16C333.66,384.78,338.43,387,338.43,389.56Z" style="fill:#fff;stroke:#263238;stroke-linecap:round;stroke-linejoin:round"></path><rect x="259.16" y="307.02" width="121.6" height="65.39" style="fill:#fff;stroke:#263238;stroke-linecap:round;stroke-linejoin:round"></rect><rect x="259.16" y="307.02" width="121.6" height="65.39" style="fill:#6B46C1;stroke:#263238;stroke-linecap:round;stroke-linejoin:round"></rect><rect x="261.98" y="310.01" width="115.48" height="54.96" style="fill:#263238;stroke:#263238;stroke-linecap:round;stroke-linejoin:round"></rect><rect x="312.53" y="372.42" width="14.37" height="3.47" style="fill:#263238;stroke:#263238;stroke-linecap:round;stroke-linejoin:round"></rect><polygon points="299.07 328.44 299.07 329.11 299.07 351.16 319.92 361.02 319.92 337.04 299.07 328.44" style="fill:#6B46C1;stroke:#263238;stroke-linecap:round;stroke-linejoin:round"></polygon><polygon points="340.77 328.44 340.77 329.11 340.77 351.16 319.92 361.02 319.92 337.04 340.77 328.44" style="fill:#bfbfbf;stroke:#263238;stroke-linecap:round;stroke-linejoin:round"></polygon><polygon points="299.07 328.44 319.92 337.04 340.77 328.44 319.92 319.03 299.07 328.44" style="fill:#fff;stroke:#263238;stroke-linecap:round;stroke-linejoin:round"></polygon><polygon points="295.23 316.92 299.22 314.36 301.4 318.57 306.14 318.35 305.92 323.09 310.13 325.26 307.57 329.26 310.13 333.25 305.92 335.43 306.14 340.17 301.4 339.94 299.22 344.16 295.23 341.6 291.24 344.16 289.06 339.94 284.32 340.17 284.54 335.43 280.33 333.25 282.89 329.26 280.33 325.26 284.54 323.09 284.32 318.35 289.06 318.57 291.24 314.36 295.23 316.92" style="fill:#fff"></polygon><g style="clip-path:url(#freepik--clip-path--inject-125)"><polygon points="295.23 316.92 299.22 314.36 301.4 318.57 306.14 318.35 305.92 323.09 310.13 325.26 307.57 329.26 310.13 333.25 305.92 335.43 306.14 340.17 301.4 339.94 299.22 344.16 295.23 341.6 291.24 344.16 289.06 339.94 284.32 340.17 284.54 335.43 280.33 333.25 282.89 329.26 280.33 325.26 284.54 323.09 284.32 318.35 289.06 318.57 291.24 314.36 295.23 316.92" style="fill:#fff;stroke:#263238;stroke-linecap:round;stroke-linejoin:round"></polygon></g><polygon points="295.23 316.92 299.22 314.36 301.4 318.57 306.14 318.35 305.92 323.09 310.13 325.26 307.57 329.26 310.13 333.25 305.92 335.43 306.14 340.17 301.4 339.94 299.22 344.16 295.23 341.6 291.24 344.16 289.06 339.94 284.32 340.17 284.54 335.43 280.33 333.25 282.89 329.26 280.33 325.26 284.54 323.09 284.32 318.35 289.06 318.57 291.24 314.36 295.23 316.92" style="fill:none;stroke:#263238;stroke-linecap:round;stroke-linejoin:round"></polygon><path d="M286.12,331.33v-.45h1.17v.54c0,.56.25.77.65.77s.64-.21.64-.79-.25-1.07-1.06-1.78a3.07,3.07,0,0,1-1.38-2.46,1.73,1.73,0,0,1,1.85-2c1.21,0,1.81.72,1.81,2v.33h-1.18v-.41c0-.56-.22-.77-.62-.77s-.62.21-.62.75.26,1,1.07,1.7a3.07,3.07,0,0,1,1.37,2.53,1.76,1.76,0,0,1-1.87,2C286.73,333.32,286.12,332.59,286.12,331.33Z" style="fill:#263238"></path><path d="M291.46,325.31h1.68l1.28,7.89h-1.24l-.22-1.56v0h-1.41l-.23,1.54h-1.15Zm1.35,5.28-.55-3.9h0l-.54,3.9Z" style="fill:#263238"></path><path d="M295,325.31h1.24v6.77h2v1.12H295Z" style="fill:#263238"></path><path d="M298.9,325.31h3.38v1.13h-2.14v2.08h1.7v1.13h-1.7v2.43h2.14v1.12H298.9Z" style="fill:#263238"></path><path d="M303.1,328.6v-3.29h1.24v3.29l-.16,2.52h-.92Zm0,3.41h1.2v1.19h-1.2Z" style="fill:#263238"></path><path d="M200,389.56v81.31H399.43V389.56Zm189.64,71.06H209.79V400.08H389.65Z" style="fill:none;stroke:#263238;stroke-linecap:round;stroke-linejoin:round"></path><line x1="299.72" y1="400.25" x2="299.72" y2="460.53" style="fill:#fff;stroke:#263238;stroke-linecap:round;stroke-linejoin:round"></line><path d="M243.72,412.49,229.66,429.8" style="fill:#fff;stroke:#263238;stroke-linecap:round;stroke-linejoin:round"></path><path d="M263.09,415.23,237.3,447" style="fill:#fff;stroke:#263238;stroke-linecap:round;stroke-linejoin:round"></path><path d="M267.83,409.39l-2.37,2.92" style="fill:#fff;stroke:#263238;stroke-linecap:round;stroke-linejoin:round"></path><path d="M259.62,446.33l-3.05,3.76" style="fill:#fff;stroke:#263238;stroke-linecap:round;stroke-linejoin:round"></path><path d="M278.44,423.15l-16.56,20.4" style="fill:#fff;stroke:#263238;stroke-linecap:round;stroke-linejoin:round"></path><path d="M337.25,412.49,323.19,429.8" style="fill:#fff;stroke:#263238;stroke-linecap:round;stroke-linejoin:round"></path><path d="M356.62,415.23,330.83,447" style="fill:#fff;stroke:#263238;stroke-linecap:round;stroke-linejoin:round"></path><path d="M361.37,409.39,359,412.31" style="fill:#fff;stroke:#263238;stroke-linecap:round;stroke-linejoin:round"></path><path d="M353.16,446.33l-3.06,3.76" style="fill:#fff;stroke:#263238;stroke-linecap:round;stroke-linejoin:round"></path><path d="M372,423.15l-16.57,20.4" style="fill:#fff;stroke:#263238;stroke-linecap:round;stroke-linejoin:round"></path></g><g id="freepik--Graphics--inject-125"><line x1="148" y1="350.33" x2="119.24" y2="196.65" style="fill:none;stroke:#263238;stroke-miterlimit:10;stroke-dasharray:1.9842400550842285,1.9842400550842285"></line><line x1="148.34" y1="350.33" x2="79.16" y2="237.09" style="fill:none;stroke:#263238;stroke-miterlimit:10;stroke-dasharray:1.9842400550842285,1.9842400550842285"></line><line x1="193.73" y1="266.08" x2="147.63" y2="350.38" style="fill:none;stroke:#263238;stroke-miterlimit:10;stroke-dasharray:1.9842400550842285,1.9842400550842285"></line><line x1="147.07" y1="350.33" x2="67.26" y2="301.46" style="fill:none;stroke:#263238;stroke-miterlimit:10;stroke-dasharray:1.9842400550842285,1.9842400550842285"></line><path d="M67.93,322.33a20.62,20.62,0,1,1,20.62-20.62A20.64,20.64,0,0,1,67.93,322.33Zm0-38.24a17.62,17.62,0,1,0,17.62,17.62A17.64,17.64,0,0,0,67.93,284.09Z" style="fill:#263238"></path><path d="M67.69,318A16.28,16.28,0,1,1,84,301.71,16.29,16.29,0,0,1,67.69,318Zm0-29.55A13.28,13.28,0,1,0,81,301.71,13.3,13.3,0,0,0,67.69,288.43Z" style="fill:#263238"></path><circle cx="67.93" cy="301.71" r="2.65" style="fill:#6B46C1;stroke:#263238;stroke-linecap:round;stroke-linejoin:round"></circle><polygon points="46.71 271.5 46.71 276.34 51.93 282.59 51.94 282.59 52.92 278.8 46.71 271.5" style="fill:#6B46C1;stroke:#263238;stroke-linecap:round;stroke-linejoin:round"></polygon><rect x="56.96" y="272.49" width="0.71" height="33.07" transform="translate(-172.13 104.17) rotate(-39.93)" style="fill:#263238;stroke:#263238;stroke-linecap:round;stroke-linejoin:round"></rect><polygon points="42.39 276.43 47.56 282.59 51.93 282.59 46.71 276.34 42.39 276.43" style="fill:#6B46C1;stroke:#263238;stroke-linecap:round;stroke-linejoin:round"></polygon><path d="M55.82,301.77a11.87,11.87,0,1,0,11.87-11.86A11.86,11.86,0,0,0,55.82,301.77Zm2.7,0a9.17,9.17,0,1,1,9.17,9.17A9.18,9.18,0,0,1,58.52,301.77Z" style="fill:#263238"></path><path d="M137.94,197.17a18.7,18.7,0,1,1-19-18.36A18.71,18.71,0,0,1,137.94,197.17Z" style="fill:#fff;stroke:#263238;stroke-linecap:round;stroke-linejoin:round"></path><path d="M120.41,215.64c6.1-4.07,9.21-12,9.09-19v.83c-.12-6.37-3.5-14.84-9.75-18.7" style="fill:#fff;stroke:#263238;stroke-linecap:round;stroke-linejoin:round"></path><polyline points="103.51 187.39 111.74 187.25 112.66 187.23 118.69 187.13 119.53 187.11 125.56 187 126.48 186.99 134.6 186.85" style="fill:#fff;stroke:#263238;stroke-linecap:round;stroke-linejoin:round"></polyline><line x1="100.6" y1="197.72" x2="137.98" y2="197.07" style="fill:#fff;stroke:#263238;stroke-linecap:round;stroke-linejoin:round"></line><polyline points="104.07 207.93 112.27 207.79 113.2 207.77 119.05 207.67 119.89 207.65 125.74 207.56 125.75 207.55 126.68 207.53 134.88 207.39 134.89 207.73" style="fill:#fff;stroke:#263238;stroke-linecap:round;stroke-linejoin:round"></polyline><g style="opacity:0.2"><polyline points="103.51 187.39 111.74 187.25 112.66 187.23 118.69 187.13 119.53 187.11 125.56 187 126.48 186.99 134.6 186.85" style="fill:#fff;stroke:#263238;stroke-linecap:round;stroke-linejoin:round"></polyline><line x1="100.6" y1="197.72" x2="137.98" y2="197.07" style="fill:#fff;stroke:#263238;stroke-linecap:round;stroke-linejoin:round"></line></g><path d="M118.73,178.45c-6.19,4.13-9.32,12.79-9.21,19.22v-.57c.12,6.42,3.54,15,9.88,18.88" style="fill:none;stroke:#263238;stroke-linecap:round;stroke-linejoin:round"></path><line x1="119.77" y1="216.15" x2="119.11" y2="178.62" style="fill:#fff;stroke:#263238;stroke-linecap:round;stroke-linejoin:round"></line><path d="M93,246.11a19,19,0,0,1-19.58,9.47,19.39,19.39,0,0,1-6.18-2.05,18.92,18.92,0,0,1-7.84-7.76l16.83-8.56-16.76-8.9a19.12,19.12,0,0,1,23-8.62h0a21.41,21.41,0,0,1,2.75,1.2A18.47,18.47,0,0,1,93,246.11Z" style="fill:#fff;stroke:#263238;stroke-linecap:round;stroke-linejoin:round"></path><path d="M96.33,247a19.11,19.11,0,0,1-23,8.63A19,19,0,0,0,93,246.11a18.47,18.47,0,0,0-7.77-25.22,21.41,21.41,0,0,0-2.75-1.2,19.18,19.18,0,0,1,6.13,2A18.45,18.45,0,0,1,96.33,247Z" style="fill:#263238"></path><polygon points="71.98 236.96 55.15 245.52 51.77 244.68 68.59 236.12 51.83 227.23 55.21 228.06 71.98 236.96" style="fill:#fff;stroke:#263238;stroke-linecap:round;stroke-linejoin:round"></polygon><polygon points="71.98 236.96 55.15 245.52 51.77 244.68 68.59 236.12 51.83 227.23 55.21 228.06 71.98 236.96" style="fill:#263238"></polygon><path d="M68.59,236.12l-16.82,8.56a18.17,18.17,0,0,1,.06-17.45Z" style="fill:#6B46C1;stroke:#263238;stroke-linecap:round;stroke-linejoin:round"></path><path d="M213,265.57a18.7,18.7,0,1,1-19-18.36A18.71,18.71,0,0,1,213,265.57Z" style="fill:#fff;stroke:#263238;stroke-linecap:round;stroke-linejoin:round"></path><line x1="178.15" y1="264.24" x2="182.38" y2="264.24" style="fill:none;stroke:#263238;stroke-miterlimit:10;stroke-width:2px"></line><path d="M179.93,269.87v-7.11a1.57,1.57,0,0,1,1.57-1.58h.79" style="fill:none;stroke:#263238;stroke-miterlimit:10;stroke-width:2px;fill-rule:evenodd"></path><path d="M208.13,265.63a2,2,0,1,1-1.95-2A2,2,0,0,1,208.13,265.63Z" style="fill:none;stroke:#263238;stroke-miterlimit:10"></path><rect x="201.64" y="261.08" width="9.08" height="9.08" rx="3.21" style="fill:none;stroke:#263238;stroke-miterlimit:10"></rect><rect x="186.56" y="263.53" width="10.38" height="5.95" style="fill:#fff;stroke:#263238;stroke-linecap:round;stroke-linejoin:round"></rect><line x1="196.95" y1="263.53" x2="186.56" y2="263.53" style="fill:#fff;stroke:#263238;stroke-linecap:round;stroke-linejoin:round"></line><polygon points="196.95 269.48 186.56 269.48 189.82 266.11 191.76 267.65 193.73 266.08 196.95 269.48" style="fill:#fff;stroke:#263238;stroke-linecap:round;stroke-linejoin:round"></polygon><polygon points="196.95 263.52 193.73 266.08 191.76 267.65 189.82 266.11 186.56 263.52 196.95 263.52" style="fill:#fff;stroke:#263238;stroke-linecap:round;stroke-linejoin:round"></polygon><path d="M191.88,327.43,204.55,340" style="fill:none;stroke:#263238;stroke-miterlimit:10;stroke-dasharray:1.9842400550842285,1.9842400550842285"></path><line x1="177.6" y1="353.07" x2="196.78" y2="353.07" style="fill:none;stroke:#263238;stroke-miterlimit:10;stroke-dasharray:1.9842400550842285,1.9842400550842285"></line><path d="M187.65,381.08a135.35,135.35,0,0,1,13.76-9.53" style="fill:none;stroke:#263238;stroke-miterlimit:10;stroke-dasharray:1.9842400550842285,1.9842400550842285"></path></g><g id="freepik--Product--inject-125"><polygon points="161.44 106.17 161.44 108.99 161.44 202.65 250 244.53 250 142.66 161.44 106.17" style="fill:#6B46C1;stroke:#263238;stroke-linecap:round;stroke-linejoin:round"></polygon><line x1="204.23" y1="218.17" x2="208.74" y2="220.35" style="fill:none;stroke:#263238;stroke-linecap:round;stroke-linejoin:round"></line><line x1="196.01" y1="214.21" x2="200.14" y2="216.2" style="fill:none;stroke:#263238;stroke-linecap:round;stroke-linejoin:round"></line><polyline points="164.84 161.45 164.84 199.17 190.52 211.56" style="fill:none;stroke:#263238;stroke-linecap:round;stroke-linejoin:round"></polyline><polygon points="338.56 106.17 338.56 108.99 338.56 202.65 250 244.53 250 142.66 338.56 106.17" style="fill:#bfbfbf;stroke:#263238;stroke-linecap:round;stroke-linejoin:round"></polygon><polygon points="161.44 106.17 250 142.66 338.56 106.17 250 66.2 161.44 106.17" style="fill:#fff;stroke:#263238;stroke-linecap:round;stroke-linejoin:round"></polygon><path d="M239.88,262.19l-11.38,7.06-.07,39.38,22.74.05.08-39.39Zm-.06,3.77a2.3,2.3,0,1,1-2.3,2.29A2.28,2.28,0,0,1,239.82,266Z" style="fill:#6B46C1;stroke:#263238;stroke-linecap:round;stroke-linejoin:round"></path><rect x="232.63" y="274.12" width="13.7" height="29.69" transform="translate(0.55 -0.45) rotate(0.11)" style="fill:#263238"></rect><path d="M246.46,292c0,3.3-2.65,5.51-6.8,5.85l-.54,2.73h-2.48l.54-2.73a11.75,11.75,0,0,1-5.7-1.9l1.66-3.08a9.53,9.53,0,0,0,4.69,1.76l.84-4.19c-2.31-.7-4.84-1.61-4.84-4.62,0-3.3,2.71-5.53,6.92-5.83l.55-2.73h2.48l-.55,2.76a10.75,10.75,0,0,1,4.57,1.41l-1.51,3.08a8.28,8.28,0,0,0-3.7-1.29l-.87,4.36C244,288.29,246.46,289.19,246.46,292Zm-7.1-5.11.72-3.57c-1.41.27-2.2,1-2.23,2C237.85,286.11,238.47,286.56,239.36,286.93Zm3.08,5.76c0-.72-.57-1.17-1.44-1.49l-.67,3.4C241.67,294.32,242.44,293.63,242.44,292.69Z" style="fill:#fff;stroke:#263238;stroke-linecap:round;stroke-linejoin:round"></path><path d="M250,244.52s-9.69,6-10.11,21.75" style="fill:none;stroke:#263238;stroke-linecap:round;stroke-linejoin:round"></path></g><g id="freepik--Label--inject-125"><polygon points="296.76 121.75 296.76 187.47 314.51 169.72 332.17 187.38 332.17 121.42 296.76 121.75" style="fill:#fff;stroke:#263238;stroke-linecap:round;stroke-linejoin:round"></polygon><polygon points="314.46 81.06 323.27 75.41 328.07 84.71 338.52 84.22 338.04 94.67 347.33 99.47 341.69 108.28 347.33 117.09 338.04 121.89 338.52 132.34 328.07 131.85 323.27 141.15 314.46 135.5 305.66 141.15 300.86 131.85 290.41 132.34 290.89 121.89 281.6 117.09 287.25 108.28 281.6 99.47 290.89 94.67 290.41 84.22 300.86 84.71 305.66 75.41 314.46 81.06" style="fill:#6B46C1"></polygon><g style="clip-path:url(#freepik--clip-path-9--inject-125)"><polygon points="314.46 81.06 323.27 75.41 328.07 84.71 338.52 84.22 338.04 94.67 347.33 99.47 341.69 108.28 347.33 117.09 338.04 121.89 338.52 132.34 328.07 131.85 323.27 141.15 314.46 135.5 305.66 141.15 300.86 131.85 290.41 132.34 290.89 121.89 281.6 117.09 287.25 108.28 281.6 99.47 290.89 94.67 290.41 84.22 300.86 84.71 305.66 75.41 314.46 81.06" style="fill:#6B46C1;stroke:#263238;stroke-linecap:round;stroke-linejoin:round"></polygon></g><polygon points="314.46 81.06 323.27 75.41 328.07 84.71 338.52 84.22 338.04 94.67 347.33 99.47 341.69 108.28 347.33 117.09 338.04 121.89 338.52 132.34 328.07 131.85 323.27 141.15 314.46 135.5 305.66 141.15 300.86 131.85 290.41 132.34 290.89 121.89 281.6 117.09 287.25 108.28 281.6 99.47 290.89 94.67 290.41 84.22 300.86 84.71 305.66 75.41 314.46 81.06" style="fill:none;stroke:#263238;stroke-linecap:round;stroke-linejoin:round"></polygon><path d="M327.62,104.38h-8.2l1.83-4.31a2.84,2.84,0,0,0,.22-1.46l-.39-3.4a2.67,2.67,0,0,0-2.69-2.38h-3.25l-.28,5.25-5.28,6.67a4.08,4.08,0,0,0-.89,2.3l-.63,12.09a2.79,2.79,0,0,0,2.8,3h11.47a3.59,3.59,0,0,0,2.68-1.22l1.07-1.19a3.51,3.51,0,0,0,.85-1.63l2.51-11.2Z" style="fill:#fff;stroke:#263238;stroke-linecap:round;stroke-linejoin:round"></path><path d="M305.49,104.38h-2.8a2.55,2.55,0,0,0-2.52,2.39l-.68,12.93a2.26,2.26,0,0,0,2.27,2.4h2.8a2.56,2.56,0,0,0,2.52-2.4l.68-12.93A2.25,2.25,0,0,0,305.49,104.38Z" style="fill:#263238;stroke:#263238;stroke-linecap:round;stroke-linejoin:round"></path><line x1="314.47" y1="159.94" x2="314.47" y2="163.45" style="fill:#263238;stroke:#263238;stroke-linecap:round;stroke-linejoin:round"></line><line x1="314.47" y1="135.5" x2="314.47" y2="156.43" style="fill:#263238;stroke:#263238;stroke-linecap:round;stroke-linejoin:round"></line></g><g id="freepik--Floor--inject-125"><line x1="37.56" y1="471.15" x2="463.03" y2="471.15" style="fill:none;stroke:#263238;stroke-linecap:round;stroke-linejoin:round"></line></g></svg>